<svg width="96.768" height="92.983" clip-rule="evenodd" fill-rule="evenodd" stroke-linecap="round" stroke-linejoin="round" version="1.1" viewBox="0 0 96.768 92.983" xmlns="http://www.w3.org/2000/svg" xmlns:serif="http://www.serif.com/">
 <g transform="translate(-45.988 -78.712)">
  <g transform="matrix(1.1655 0 0 1.102 -124 -68.27)">
   <g id="Light-Logo" transform="matrix(.85801 0 0 .90748 -3243.4 -1469.2)" serif:id="Light Logo">
    <g id="Logo" transform="translate(21.476 36.736)">
     <g id="Icon">
      <g transform="matrix(-.19179 -.71579 .71579 -.19179 4329.1 4673.6)" fill="#1f88c0">
       <path d="m3901.6 610.73c-8.03-0.473-15.5-2.634-22.36-5.857-6.96-3.269-13.16-7.784-18.4-13.244-2.09-2.176-4.04-4.484-5.83-6.924-1.77-2.428-3.4-4.976-4.84-7.643-4.24-7.842-6.92-16.685-7.24-26.198-0.32-7.547 0.75-14.813 3.05-21.561 2.43-7.104 6.14-13.611 10.89-19.258l-1.04-0.954c-5.4 5.445-9.77 11.886-12.89 19.03-3.06 7-4.87 14.656-5.22 22.743-0.34 10.523 1.83 20.557 6.11 29.438 1.48 3.074 3.24 5.998 5.22 8.743 2 2.757 4.23 5.341 6.68 7.693 6.06 5.826 13.31 10.448 21.34 13.358 7.63 2.767 15.93 3.959 24.53 3.452z"/>
       <path d="m3875.7 496.57c3.93-2.035 8.11-3.676 12.51-4.787 4.29-1.082 8.76-1.662 13.36-1.754 2.26 0.098 4.47 0.3 6.65 0.656 8.92 1.459 16.98 5.126 24.1 9.995 3.82 2.611 7.28 5.652 10.5 8.936 4.28 4.361 8.08 9.197 11.04 14.613 4.35 7.965 7.11 16.954 7.47 26.636 0.29 7.88-0.86 15.477-3.44 22.454-1.79 4.847-4.18 9.431-7.22 13.516-3.44 4.623-7.7 8.589-12.39 11.931-4.61 3.286-9.74 5.85-15.18 7.709-0.72 0.243-1.49 0.327-2.16 0.689-0.51 0.281-0.79 0.687-1.24 1.057l0.68 2.165c0.61 0.043 1.1 0.184 1.7 0.085 0.79-0.13 1.48-0.591 2.21-0.908 7.71-3.35 14.54-8.211 20.29-14.138 2.45-2.525 4.68-5.254 6.74-8.109 2.28-3.151 4.35-6.466 6.12-9.971 4.04-8.008 6.58-16.926 6.93-26.48 0.38-10.357-1.7-20.24-5.88-29-2.91-6.093-6.76-11.705-11.53-16.39-3.58-3.516-7.69-6.488-12.11-8.916-7.96-4.37-16.97-6.802-26.47-7.333-2.25-0.125-4.51-0.175-6.81-0.075-4.69-0.094-9.26 0.365-13.67 1.243-4.59 0.912-9 2.286-13.18 4.128z"/>
      </g>
      <g transform="matrix(-3.3711 -.51456 .51456 -3.3711 4078.1 1806.9)">
       <path d="m22 12c0-1.097-0.903-2-2-2-0.579 0-1.103 0.251-1.47 0.649-0.328 0.357-0.53 0.832-0.53 1.351 0 1.097 0.903 2 2 2s2-0.903 2-2z" fill="none" stroke="#1f88c0" stroke-width="1.05px"/>
      </g>
      <g transform="matrix(-5.3392 -5.2616 -3.1211 -6.9639 4073.9 1861.6)">
       <path d="m10.315 5.333s-0.567 0.588-1.285 1.34c-1.262 1.322-2.976 3.132-2.976 3.132l0.183 0.055s1.808-1.783 3.123-3.089c0.747-0.743 1.329-1.327 1.329-1.327z" fill="#1f88c0"/>
      </g>
      <g id="Padlock" transform="matrix(3.1143 0 0 3.1143 3938.3 1737.2)">
       <g fill="none" stroke="#22b638" stroke-width="1.89px">
        <path d="m9.876 21h8.286c0.463 0 0.838-0.375 0.838-0.838v-8.324c0-0.463-0.375-0.838-0.838-0.838h-12.324c-0.463 0-0.838 0.375-0.838 0.838v4.92" stroke-linecap="butt" stroke-linejoin="miter"/>
        <path d="m8 11v-4c0-2.194 1.806-4 4-4s4 1.806 4 4v4"/>
       </g>
      </g>
      <g transform="matrix(5.3098 .69742 -.69742 5.3098 3852.7 1728)">
       <path d="m22 12c0-0.341-0.087-0.663-0.24-0.945-0.339-0.626-1.004-1.055-1.76-1.055-1.097 0-2 0.903-2 2s0.903 2 2 2 2-0.903 2-2z" fill="none" stroke="#1f88c0" stroke-width=".98px"/>
      </g>
      <g transform="matrix(4.9311 2.496 1.1102 5.4485 3921.4 1726.7)">
       <path d="m8.902 6.77s-1.667 1.483-2.875 2.596c-0.684 0.63-1.208 1.136-1.208 1.136l0.701 0.662s0.501-0.527 1.126-1.213c1.103-1.212 2.573-2.883 2.573-2.883z" fill="#1f88c0"/>
      </g>
     </g>
     <g id="Wordmark" transform="matrix(1.5416 0 0 2.8744 2710.6 709.8)">
      <g id="add" transform="matrix(.52508 0 0 .28161 801.87 304.99)"></g>
     </g>
    </g>
    <g id="R" transform="matrix(.49702 0 0 .49702 2390.4 823.15)">
     <g transform="translate(-.10786 .4508)"></g>
    </g>
   </g>
  </g>
 </g>
</svg>
