<?xml version="1.0" encoding="UTF-8"?>
<!DOCTYPE svg PUBLIC "-//W3C//DTD SVG 1.1//EN" "http://www.w3.org/Graphics/SVG/1.1/DTD/svg11.dtd">
<svg xmlns="http://www.w3.org/2000/svg" version="1.1" width="843px" height="843px" style="shape-rendering:geometricPrecision; text-rendering:geometricPrecision; image-rendering:optimizeQuality; fill-rule:evenodd; clip-rule:evenodd" xmlns:xlink="http://www.w3.org/1999/xlink">
<g><path style="opacity:0.984" fill="#4eb4b8" d="M 497.5,1.5 C 545.54,25.8531 593.54,50.1864 641.5,74.5C 641.141,76.371 640.141,77.871 638.5,79C 590.955,114.051 543.289,148.885 495.5,183.5C 495.167,183.5 494.833,183.5 494.5,183.5C 494.916,139.929 495.583,96.096 496.5,52C 496.143,38.6581 495.81,25.6581 495.5,13C 496.072,9.01502 496.739,5.18168 497.5,1.5 Z"/></g>
<g><path style="opacity:0.995" fill="#44abb5" d="M 497.5,1.5 C 496.739,5.18168 496.072,9.01502 495.5,13C 495.81,25.6581 496.143,38.6581 496.5,52C 495.583,96.096 494.916,139.929 494.5,183.5C 446.011,159.089 397.677,134.422 349.5,109.5C 351.239,106.59 353.572,104.09 356.5,102C 402.882,68.3264 449.382,34.4931 496,0.5C 496.765,0.569925 497.265,0.903259 497.5,1.5 Z"/></g>
<g><path style="opacity:0.994" fill="#44abb5" d="M 641.5,74.5 C 642.525,75.3739 643.192,76.5405 643.5,78C 642.415,117.249 642.415,156.249 643.5,195C 641.887,217.389 641.554,238.556 642.5,258.5C 593.5,294.5 544.5,330.5 495.5,366.5C 494.235,365.486 493.569,363.986 493.5,362C 494.537,327.296 494.537,293.13 493.5,259.5C 494.404,233.474 495.071,208.14 495.5,183.5C 543.289,148.885 590.955,114.051 638.5,79C 640.141,77.871 641.141,76.371 641.5,74.5 Z"/></g>
<g><path style="opacity:0.983" fill="#4eb4b8" d="M 348.5,109.5 C 348.833,109.5 349.167,109.5 349.5,109.5C 397.677,134.422 446.011,159.089 494.5,183.5C 492.861,185.231 491.194,187.065 489.5,189C 442.219,223.784 394.886,258.284 347.5,292.5C 347.714,290.856 347.38,289.356 346.5,288C 347.167,263.667 347.833,239.333 348.5,215C 348.021,180.746 348.021,145.579 348.5,109.5 Z"/></g>
<g><path style="opacity:0.995" fill="#44abb5" d="M 348.5,109.5 C 348.021,145.579 348.021,180.746 348.5,215C 347.833,239.333 347.167,263.667 346.5,288C 347.38,289.356 347.714,290.856 347.5,292.5C 347.167,292.5 346.833,292.5 346.5,292.5C 346.631,291.624 346.298,290.957 345.5,290.5C 297.063,266.284 249.063,241.617 201.5,216.5C 249.705,180.457 298.038,144.624 346.5,109C 347.437,108.308 348.103,108.475 348.5,109.5 Z"/></g>
<g><path style="opacity:0.994" fill="#44abb5" d="M 199.5,217.5 C 200.457,278.532 200.457,338.865 199.5,398.5C 150.565,374.533 101.898,350.2 53.5,325.5C 53.4142,324.504 53.7476,323.671 54.5,323C 61.5344,318.484 68.2011,313.484 74.5,308C 116.406,277.757 158.073,247.59 199.5,217.5 Z"/></g>
<g><path style="opacity:0.983" fill="#4fb4b8" d="M 199.5,217.5 C 199.842,216.662 200.508,216.328 201.5,216.5C 249.063,241.617 297.063,266.284 345.5,290.5C 346.298,290.957 346.631,291.624 346.5,292.5C 299.764,327.517 252.764,362.017 205.5,396C 204.257,397.154 203.257,398.488 202.5,400C 250.686,424.259 298.686,448.759 346.5,473.5C 341.94,478.125 336.94,482.291 331.5,486C 287.369,517.644 243.703,549.811 200.5,582.5C 199.508,582.672 198.842,582.338 198.5,581.5C 198.751,542.851 199.418,503.351 200.5,463C 200.601,442.126 200.434,420.959 200,399.5C 151.922,434.789 103.755,469.956 55.5,505C 54.1772,505.816 53.5106,506.983 53.5,508.5C 52.8826,508.389 52.3826,508.056 52,507.5C 51.8333,502.167 51.6667,496.833 51.5,491.5C 52.4613,452.391 52.4613,413.225 51.5,374C 52.1667,368 52.8333,362 53.5,356C 52.187,346.032 52.187,335.865 53.5,325.5C 101.898,350.2 150.565,374.533 199.5,398.5C 200.457,338.865 200.457,278.532 199.5,217.5 Z"/></g>
<g><path style="opacity:0.982" fill="#fcc346" d="M 642.5,258.5 C 642.5,258.833 642.5,259.167 642.5,259.5C 642.192,320.626 642.025,381.292 642,441.5C 691.297,406.023 740.131,370.023 788.5,333.5C 789.497,333.47 790.164,333.97 790.5,335C 789.941,394.674 789.274,455.174 788.5,516.5C 740.141,491.32 691.475,466.654 642.5,442.5C 641.989,502.901 641.323,563.234 640.5,623.5C 599.5,602.833 558.5,582.167 517.5,561.5C 517.5,560.833 517.167,560.5 516.5,560.5C 509.398,556.615 502.065,553.282 494.5,550.5C 494.478,610.84 493.812,671.174 492.5,731.5C 444.13,706.77 395.797,682.103 347.5,657.5C 347.5,657.167 347.5,656.833 347.5,656.5C 444.778,585.268 542.112,513.768 639.5,442C 592.451,417.327 545.118,392.994 497.5,369C 496.619,368.292 495.953,367.458 495.5,366.5C 544.5,330.5 593.5,294.5 642.5,258.5 Z"/></g>
<g><path style="opacity:0.985" fill="#fecf58" d="M 642.5,259.5 C 643.873,259.343 645.207,259.51 646.5,260C 694.148,284.038 741.482,308.538 788.5,333.5C 740.131,370.023 691.297,406.023 642,441.5C 642.025,381.292 642.192,320.626 642.5,259.5 Z"/></g>
<g><path style="opacity:0.994" fill="#44abb5" d="M 198.5,581.5 C 197.127,581.657 195.793,581.49 194.5,581C 147.594,556.557 100.594,532.391 53.5,508.5C 53.5106,506.983 54.1772,505.816 55.5,505C 103.755,469.956 151.922,434.789 200,399.5C 200.434,420.959 200.601,442.126 200.5,463C 199.418,503.351 198.751,542.851 198.5,581.5 Z"/></g>
<g><path style="opacity:0.986" fill="#ffcf58" d="M 788.5,516.5 C 740.408,551.812 692.408,587.312 644.5,623C 643.207,623.49 641.873,623.657 640.5,623.5C 641.323,563.234 641.989,502.901 642.5,442.5C 691.475,466.654 740.141,491.32 788.5,516.5 Z"/></g>
<g><path style="opacity:0.981" fill="#fcc346" d="M 346.5,473.5 C 347.478,473.811 348.145,474.478 348.5,475.5C 348.454,504.213 348.454,533.046 348.5,562C 347.833,570.667 347.167,579.333 346.5,588C 347.421,610.669 347.754,633.502 347.5,656.5C 347.5,656.833 347.5,657.167 347.5,657.5C 346.479,718.287 345.812,778.953 345.5,839.5C 330.912,833.206 316.578,826.373 302.5,819C 268.015,801.094 233.682,783.261 199.5,765.5C 248.099,729.521 296.766,693.521 345.5,657.5C 297.172,632.171 248.838,607.171 200.5,582.5C 243.703,549.811 287.369,517.644 331.5,486C 336.94,482.291 341.94,478.125 346.5,473.5 Z"/></g>
<g><path style="opacity:0.986" fill="#fecf58" d="M 200.5,582.5 C 248.838,607.171 297.172,632.171 345.5,657.5C 296.766,693.521 248.099,729.521 199.5,765.5C 198.733,764.828 198.066,763.995 197.5,763C 198.58,757.145 198.58,751.478 197.5,746C 198.167,735.667 198.833,725.333 199.5,715C 199.317,681.184 198.983,647.517 198.5,614C 199.703,603.373 200.37,592.873 200.5,582.5 Z"/></g>
<g><path style="opacity:0.986" fill="#ffcf58" d="M 516.5,560.5 C 517.167,560.5 517.5,560.833 517.5,561.5C 558.5,582.167 599.5,602.833 640.5,623.5C 638.717,625.673 636.717,627.84 634.5,630C 565.569,679.925 496.902,730.259 428.5,781C 402.545,799.605 376.545,818.272 350.5,837C 349.676,840.054 348.009,840.888 345.5,839.5C 345.812,778.953 346.479,718.287 347.5,657.5C 395.797,682.103 444.13,706.77 492.5,731.5C 493.812,671.174 494.478,610.84 494.5,550.5C 502.065,553.282 509.398,556.615 516.5,560.5 Z"/></g>
</svg>
